<svg data-name="Layer 1" id="a9a5b037-7dbd-4f1c-9e50-034c27099ba1" viewBox="0 0 103.52 107.83"
    xmlns="http://www.w3.org/2000/svg">
    <title>icon_108dp</title>
    <g>
        <path style="fill: #766e65"
            d="M103.42,37.46a2.52,2.52,0,0,0,0-2.27L93.85,18.62a2.5,2.5,0,0,0-2-1.14H74.32a2.53,2.53,0,0,1-2-1.13L63.57,1.13A2.53,2.53,0,0,0,61.6,0H42.47a2.55,2.55,0,0,0-2,1.13L31.72,16.35a2.52,2.52,0,0,1-2,1.13H12.19a2.52,2.52,0,0,0-2,1.14L.66,35.19a2.46,2.46,0,0,0,0,2.27L9.44,52.67a2.52,2.52,0,0,1,0,2.27L.66,70.16a2.46,2.46,0,0,0,0,2.27L10.22,89a2.53,2.53,0,0,0,2,1.13H29.75a2.5,2.5,0,0,1,2,1.14l8.78,15.21a2.53,2.53,0,0,0,2,1.14H61.6a2.52,2.52,0,0,0,2-1.14l8.78-15.21a2.52,2.52,0,0,1,2-1.14H91.89a2.51,2.51,0,0,0,2-1.13l9.57-16.57a2.52,2.52,0,0,0,0-2.27L94.63,54.94a2.52,2.52,0,0,1,0-2.27Zm-31-16.16a2.5,2.5,0,0,1,2-1.14h16a2.52,2.52,0,0,1,2,1.14l8,13.89a2.52,2.52,0,0,1,0,2.27l-8,13.86a2.51,2.51,0,0,1-2,1.13H74.29a2.53,2.53,0,0,1-2-1.13l-8-13.83a2.52,2.52,0,0,1,0-2.27ZM70,52.67a2.52,2.52,0,0,1,0,2.27L62,68.81a2.55,2.55,0,0,1-2,1.13H44a2.51,2.51,0,0,1-2-1.13l-8-13.87a2.52,2.52,0,0,1,0-2.27l8-13.86a2.51,2.51,0,0,1,2-1.13H60a2.55,2.55,0,0,1,2,1.13Zm-28-48.86a2.53,2.53,0,0,1,2-1.13h16a2.52,2.52,0,0,1,2,1.13l8,13.86a2.52,2.52,0,0,1,0,2.27L62,33.86A2.52,2.52,0,0,1,60,35h-16a2.5,2.5,0,0,1-2-1.14l-8-13.92a2.52,2.52,0,0,1,0-2.27ZM3.75,37.46a2.52,2.52,0,0,1,0-2.27l8-13.89a2.5,2.5,0,0,1,2-1.14h16a2.5,2.5,0,0,1,2,1.14l8,13.92a2.52,2.52,0,0,1,0,2.27l-8,13.83a2.51,2.51,0,0,1-2,1.13H13.72a2.53,2.53,0,0,1-2-1.13Zm10,49.88a2.51,2.51,0,0,1-2-1.13l-8-13.89a2.52,2.52,0,0,1,0-2.27L11.69,56.3a2.5,2.5,0,0,1,2-1.14H29.85a2.52,2.52,0,0,1,2,1.14l7.94,13.75a2.52,2.52,0,0,1,0,2.27l-8,13.89a2.53,2.53,0,0,1-2,1.13ZM62,103.8a2.5,2.5,0,0,1-2,1.14H44a2.52,2.52,0,0,1-2-1.14l-8-13.86a2.52,2.52,0,0,1,0-2.27l8-13.92a2.51,2.51,0,0,1,2-1.13H60a2.53,2.53,0,0,1,2,1.13l8,13.92a2.52,2.52,0,0,1,0,2.27Zm38.3-33.75a2.52,2.52,0,0,1,0,2.27l-8,13.89a2.53,2.53,0,0,1-2,1.13h-16a2.51,2.51,0,0,1-2-1.13l-8-13.89a2.52,2.52,0,0,1,0-2.27L72.26,56.3a2.5,2.5,0,0,1,2-1.14h16.2a2.5,2.5,0,0,1,2,1.14Z"
            transform="translate(-0.28 0.11)" />
        <path
            style="fill: none;stroke: #766e65;stroke-miterlimit: 10;stroke-width: 0.21841277182102203px"
            d="M103.42,37.46a2.52,2.52,0,0,0,0-2.27L93.85,18.62a2.5,2.5,0,0,0-2-1.14H74.32a2.53,2.53,0,0,1-2-1.13L63.57,1.13A2.53,2.53,0,0,0,61.6,0H42.47a2.55,2.55,0,0,0-2,1.13L31.72,16.35a2.52,2.52,0,0,1-2,1.13H12.19a2.52,2.52,0,0,0-2,1.14L.66,35.19a2.46,2.46,0,0,0,0,2.27L9.44,52.67a2.52,2.52,0,0,1,0,2.27L.66,70.16a2.46,2.46,0,0,0,0,2.27L10.22,89a2.53,2.53,0,0,0,2,1.13H29.75a2.5,2.5,0,0,1,2,1.14l8.78,15.21a2.53,2.53,0,0,0,2,1.14H61.6a2.52,2.52,0,0,0,2-1.14l8.78-15.21a2.52,2.52,0,0,1,2-1.14H91.89a2.51,2.51,0,0,0,2-1.13l9.57-16.57a2.52,2.52,0,0,0,0-2.27L94.63,54.94a2.52,2.52,0,0,1,0-2.27Zm-31-16.16a2.5,2.5,0,0,1,2-1.14h16a2.52,2.52,0,0,1,2,1.14l8,13.89a2.52,2.52,0,0,1,0,2.27l-8,13.86a2.51,2.51,0,0,1-2,1.13H74.29a2.53,2.53,0,0,1-2-1.13l-8-13.83a2.52,2.52,0,0,1,0-2.27ZM70,52.67a2.52,2.52,0,0,1,0,2.27L62,68.81a2.55,2.55,0,0,1-2,1.13H44a2.51,2.51,0,0,1-2-1.13l-8-13.87a2.52,2.52,0,0,1,0-2.27l8-13.86a2.51,2.51,0,0,1,2-1.13H60a2.55,2.55,0,0,1,2,1.13Zm-28-48.86a2.53,2.53,0,0,1,2-1.13h16a2.52,2.52,0,0,1,2,1.13l8,13.86a2.52,2.52,0,0,1,0,2.27L62,33.86A2.52,2.52,0,0,1,60,35h-16a2.5,2.5,0,0,1-2-1.14l-8-13.92a2.52,2.52,0,0,1,0-2.27ZM3.75,37.46a2.52,2.52,0,0,1,0-2.27l8-13.89a2.5,2.5,0,0,1,2-1.14h16a2.5,2.5,0,0,1,2,1.14l8,13.92a2.52,2.52,0,0,1,0,2.27l-8,13.83a2.51,2.51,0,0,1-2,1.13H13.72a2.53,2.53,0,0,1-2-1.13Zm10,49.88a2.51,2.51,0,0,1-2-1.13l-8-13.89a2.52,2.52,0,0,1,0-2.27L11.69,56.3a2.5,2.5,0,0,1,2-1.14H29.85a2.52,2.52,0,0,1,2,1.14l7.94,13.75a2.52,2.52,0,0,1,0,2.27l-8,13.89a2.53,2.53,0,0,1-2,1.13ZM62,103.8a2.5,2.5,0,0,1-2,1.14H44a2.52,2.52,0,0,1-2-1.14l-8-13.86a2.52,2.52,0,0,1,0-2.27l8-13.92a2.51,2.51,0,0,1,2-1.13H60a2.53,2.53,0,0,1,2,1.13l8,13.92a2.52,2.52,0,0,1,0,2.27Zm38.3-33.75a2.52,2.52,0,0,1,0,2.27l-8,13.89a2.53,2.53,0,0,1-2,1.13h-16a2.51,2.51,0,0,1-2-1.13l-8-13.89a2.52,2.52,0,0,1,0-2.27L72.26,56.3a2.5,2.5,0,0,1,2-1.14h16.2a2.5,2.5,0,0,1,2,1.14Z"
            transform="translate(-0.28 0.11)" />
    </g>
    <g>
        <path style="fill: #f2d04b"
            d="M70,52.67a2.52,2.52,0,0,1,0,2.27L62,68.81a2.55,2.55,0,0,1-2,1.13H44a2.51,2.51,0,0,1-2-1.13l-8-13.87a2.52,2.52,0,0,1,0-2.27l8-13.86a2.51,2.51,0,0,1,2-1.13H60a2.55,2.55,0,0,1,2,1.13Z"
            transform="translate(-0.28 0.11)" />
        <path
            style="fill: none;stroke: #766e65;stroke-miterlimit: 10;stroke-width: 0.21841277182102203px"
            d="M70,52.67a2.52,2.52,0,0,1,0,2.27L62,68.81a2.55,2.55,0,0,1-2,1.13H44a2.51,2.51,0,0,1-2-1.13l-8-13.87a2.52,2.52,0,0,1,0-2.27l8-13.86a2.51,2.51,0,0,1,2-1.13H60a2.55,2.55,0,0,1,2,1.13Z"
            transform="translate(-0.28 0.11)" />
    </g>
    <path
        style="fill: #59534d;stroke: #59534d;stroke-miterlimit: 10;stroke-width: 0.21841277182102203px"
        d="M59.32,62H56.57L52,55.2,47.2,62H44.76l5.89-8.15-5.49-7.45h2.57l4.32,6,4.34-6h2.47l-5.47,7.38Z"
        transform="translate(-0.28 0.11)" />
    <g>
        <path style="fill: #ea5a38"
            d="M70,17.7A2.52,2.52,0,0,1,70,20L62,33.84A2.55,2.55,0,0,1,60,35H44a2.51,2.51,0,0,1-2-1.13L34.07,20a2.52,2.52,0,0,1,0-2.27l8-13.86a2.51,2.51,0,0,1,2-1.13H60a2.55,2.55,0,0,1,2,1.13Z"
            transform="translate(-0.28 0.11)" />
        <path
            style="fill: none;stroke: #766e65;stroke-miterlimit: 10;stroke-width: 0.21841277182102203px"
            d="M70,17.7A2.52,2.52,0,0,1,70,20L62,33.84A2.55,2.55,0,0,1,60,35H44a2.51,2.51,0,0,1-2-1.13L34.07,20a2.52,2.52,0,0,1,0-2.27l8-13.86a2.51,2.51,0,0,1,2-1.13H60a2.55,2.55,0,0,1,2,1.13Z"
            transform="translate(-0.28 0.11)" />
    </g>
    <path
        style="fill: #59534d;stroke: #59534d;stroke-miterlimit: 10;stroke-width: 0.21841277182102203px"
        d="M58.12,19.19a15.68,15.68,0,0,1-.33,3.38,6.86,6.86,0,0,1-1.07,2.53,4.76,4.76,0,0,1-1.89,1.58,6.61,6.61,0,0,1-2.81.55,6.18,6.18,0,0,1-2.67-.55,4.87,4.87,0,0,1-1.88-1.58,7.26,7.26,0,0,1-1.12-2.53A13.88,13.88,0,0,1,46,19.19a15.84,15.84,0,0,1,.33-3.39,7,7,0,0,1,1-2.52,4.64,4.64,0,0,1,1.88-1.57A6.32,6.32,0,0,1,52,11.16a6.21,6.21,0,0,1,2.69.54,4.83,4.83,0,0,1,1.9,1.57,7.12,7.12,0,0,1,1.13,2.52A13.55,13.55,0,0,1,58.12,19.19Zm-9.74,0a17.36,17.36,0,0,0,.2,2.79,6.55,6.55,0,0,0,.62,2,3,3,0,0,0,1.13,1.19,3.3,3.3,0,0,0,1.69.4,3.49,3.49,0,0,0,1.71-.39A3.14,3.14,0,0,0,54.88,24a6.2,6.2,0,0,0,.65-2,17.72,17.72,0,0,0,.2-2.81,17.58,17.58,0,0,0-.2-2.8,6.14,6.14,0,0,0-.65-2,3.14,3.14,0,0,0-1.15-1.19A3.49,3.49,0,0,0,52,12.83a3.41,3.41,0,0,0-1.69.39,3,3,0,0,0-1.13,1.19,6.42,6.42,0,0,0-.62,2A17.58,17.58,0,0,0,48.38,19.19Z"
        transform="translate(-0.28 0.11)" />
    <g>
        <path style="fill: #f2b179"
            d="M70,87.64a2.52,2.52,0,0,1,0,2.27l-8,13.87a2.55,2.55,0,0,1-2,1.13H44a2.51,2.51,0,0,1-2-1.13l-8-13.87a2.52,2.52,0,0,1,0-2.27l8-13.86a2.51,2.51,0,0,1,2-1.13H60a2.55,2.55,0,0,1,2,1.13Z"
            transform="translate(-0.28 0.11)" />
        <path
            style="fill: none;stroke: #766e65;stroke-miterlimit: 10;stroke-width: 0.21841277182102203px"
            d="M70,87.64a2.52,2.52,0,0,1,0,2.27l-8,13.87a2.55,2.55,0,0,1-2,1.13H44a2.51,2.51,0,0,1-2-1.13l-8-13.87a2.52,2.52,0,0,1,0-2.27l8-13.86a2.51,2.51,0,0,1,2-1.13H60a2.55,2.55,0,0,1,2,1.13Z"
            transform="translate(-0.28 0.11)" />
    </g>
    <path
        style="fill: #59534d;stroke: #59534d;stroke-miterlimit: 10;stroke-width: 0.21841277182102203px"
        d="M58.84,93.45H56.07V97H53.78v-3.5H45v-1.7l8.62-10.49h2.45V91.68h2.77Zm-5.06-1.77v-3.8c0-.4,0-.82,0-1.25s0-.87,0-1.29,0-.8.06-1.16,0-.67.05-.91h-.12c-.06.14-.14.3-.23.47s-.19.35-.3.53a5.39,5.39,0,0,1-.33.5,3.28,3.28,0,0,1-.31.42l-5.34,6.49Z"
        transform="translate(-0.28 0.11)" />
    <g>
        <path style="fill: #f77b5f"
            d="M39.72,35.17a2.52,2.52,0,0,1,0,2.27l-8,13.87a2.51,2.51,0,0,1-2,1.13h-16a2.53,2.53,0,0,1-2-1.13l-8-13.87a2.52,2.52,0,0,1,0-2.27l8-13.86a2.53,2.53,0,0,1,2-1.13h16a2.51,2.51,0,0,1,2,1.13Z"
            transform="translate(-0.28 0.11)" />
        <path
            style="fill: none;stroke: #766e65;stroke-miterlimit: 10;stroke-width: 0.21841277182102203px"
            d="M39.72,35.17a2.52,2.52,0,0,1,0,2.27l-8,13.87a2.51,2.51,0,0,1-2,1.13h-16a2.53,2.53,0,0,1-2-1.13l-8-13.87a2.52,2.52,0,0,1,0-2.27l8-13.86a2.53,2.53,0,0,1,2-1.13h16a2.51,2.51,0,0,1,2,1.13Z"
            transform="translate(-0.28 0.11)" />
    </g>
    <path
        style="fill: #59534d;stroke: #59534d;stroke-miterlimit: 10;stroke-width: 0.21841277182102203px"
        d="M27.84,36.66A15,15,0,0,1,27.5,40a6.85,6.85,0,0,1-1.06,2.53,4.76,4.76,0,0,1-1.89,1.58,6.61,6.61,0,0,1-2.81.55,6.18,6.18,0,0,1-2.67-.55,4.9,4.9,0,0,1-1.89-1.58A7.25,7.25,0,0,1,16.07,40a13.86,13.86,0,0,1-.38-3.38A15.64,15.64,0,0,1,16,33.28a7,7,0,0,1,1-2.53A4.61,4.61,0,0,1,19,29.18a6.4,6.4,0,0,1,2.79-.55,6.24,6.24,0,0,1,2.69.54,4.9,4.9,0,0,1,1.9,1.57,7.3,7.3,0,0,1,1.13,2.52A14,14,0,0,1,27.84,36.66Zm-9.74,0a19,19,0,0,0,.19,2.8,6.3,6.3,0,0,0,.63,2A2.93,2.93,0,0,0,20,42.64a3.34,3.34,0,0,0,1.7.4,3.45,3.45,0,0,0,1.7-.39,3.07,3.07,0,0,0,1.15-1.19,5.89,5.89,0,0,0,.65-2,16.61,16.61,0,0,0,.2-2.81,16.48,16.48,0,0,0-.2-2.8,5.91,5.91,0,0,0-.65-2,3.07,3.07,0,0,0-1.15-1.19,3.9,3.9,0,0,0-3.4,0,2.93,2.93,0,0,0-1.12,1.19,6.15,6.15,0,0,0-.63,2A19,19,0,0,0,18.1,36.66Z"
        transform="translate(-0.28 0.11)" />
    <g>
        <path style="fill: #eee4db"
            d="M100.29,35.17a2.52,2.52,0,0,1,0,2.27l-8,13.87a2.53,2.53,0,0,1-2,1.13h-16a2.53,2.53,0,0,1-2-1.13l-8-13.87a2.52,2.52,0,0,1,0-2.27l8-13.86a2.53,2.53,0,0,1,2-1.13h16a2.53,2.53,0,0,1,2,1.13Z"
            transform="translate(-0.28 0.11)" />
        <path
            style="fill: none;stroke: #766e65;stroke-miterlimit: 10;stroke-width: 0.21841277182102203px"
            d="M100.29,35.17a2.52,2.52,0,0,1,0,2.27l-8,13.87a2.53,2.53,0,0,1-2,1.13h-16a2.53,2.53,0,0,1-2-1.13l-8-13.87a2.52,2.52,0,0,1,0-2.27l8-13.86a2.53,2.53,0,0,1,2-1.13h16a2.53,2.53,0,0,1,2,1.13Z"
            transform="translate(-0.28 0.11)" />
    </g>
    <path
        style="fill: #59534d;stroke: #59534d;stroke-miterlimit: 10;stroke-width: 0.21841277182102203px"
        d="M88.4,36.66A15.68,15.68,0,0,1,88.07,40,6.85,6.85,0,0,1,87,42.57a4.76,4.76,0,0,1-1.89,1.58,6.64,6.64,0,0,1-2.81.55,6.11,6.11,0,0,1-2.67-.55,4.9,4.9,0,0,1-1.89-1.58A7.26,7.26,0,0,1,76.63,40a14.39,14.39,0,0,1-.37-3.38,15.68,15.68,0,0,1,.33-3.38,7.21,7.21,0,0,1,1.06-2.53,4.61,4.61,0,0,1,1.87-1.57,6.4,6.4,0,0,1,2.79-.55,6.24,6.24,0,0,1,2.69.54,5,5,0,0,1,1.9,1.57A7.3,7.3,0,0,1,88,33.26,14.05,14.05,0,0,1,88.4,36.66Zm-9.73,0a17.68,17.68,0,0,0,.19,2.8,6.3,6.3,0,0,0,.63,2,2.93,2.93,0,0,0,1.12,1.19,3.32,3.32,0,0,0,1.7.4,3.45,3.45,0,0,0,1.7-.39,3.07,3.07,0,0,0,1.15-1.19,5.89,5.89,0,0,0,.65-2,16.61,16.61,0,0,0,.2-2.81,16.48,16.48,0,0,0-.2-2.8,5.91,5.91,0,0,0-.65-2A3.07,3.07,0,0,0,84,30.69a3.9,3.9,0,0,0-3.4,0,2.93,2.93,0,0,0-1.12,1.19,6.15,6.15,0,0,0-.63,2A17.68,17.68,0,0,0,78.67,36.66Z"
        transform="translate(-0.28 0.11)" />
    <g>
        <path style="fill: #e9cc9c"
            d="M100.3,70.12a2.52,2.52,0,0,1,0,2.27l-8,13.86a2.53,2.53,0,0,1-2,1.13h-16a2.53,2.53,0,0,1-2-1.13l-8-13.86a2.52,2.52,0,0,1,0-2.27l8-13.86a2.52,2.52,0,0,1,2-1.14h16a2.52,2.52,0,0,1,2,1.14Z"
            transform="translate(-0.28 0.11)" />
        <path
            style="fill: none;stroke: #766e65;stroke-miterlimit: 10;stroke-width: 0.21841277182102203px"
            d="M100.3,70.12a2.52,2.52,0,0,1,0,2.27l-8,13.86a2.53,2.53,0,0,1-2,1.13h-16a2.53,2.53,0,0,1-2-1.13l-8-13.86a2.52,2.52,0,0,1,0-2.27l8-13.86a2.52,2.52,0,0,1,2-1.14h16a2.52,2.52,0,0,1,2,1.14Z"
            transform="translate(-0.28 0.11)" />
    </g>
    <path
        style="fill: #59534d;stroke: #59534d;stroke-miterlimit: 10;stroke-width: 0.21841277182102203px"
        d="M88.41,71.6A15.84,15.84,0,0,1,88.08,75,6.93,6.93,0,0,1,87,77.52a4.73,4.73,0,0,1-1.89,1.57,6.41,6.41,0,0,1-2.8.55,6,6,0,0,1-2.68-.55,4.91,4.91,0,0,1-1.88-1.57A7.34,7.34,0,0,1,76.64,75a14,14,0,0,1-.37-3.39,15.74,15.74,0,0,1,.33-3.38,7,7,0,0,1,1.05-2.53,4.78,4.78,0,0,1,1.88-1.57,7.28,7.28,0,0,1,5.48,0,5,5,0,0,1,1.89,1.57A7.27,7.27,0,0,1,88,68.21,14,14,0,0,1,88.41,71.6Zm-9.73,0a17.68,17.68,0,0,0,.19,2.8,6.48,6.48,0,0,0,.62,2,3,3,0,0,0,1.13,1.19,3.32,3.32,0,0,0,1.7.4,3.47,3.47,0,0,0,1.7-.39,3,3,0,0,0,1.15-1.18,6.18,6.18,0,0,0,.65-2A17.63,17.63,0,0,0,86,71.6a17.45,17.45,0,0,0-.2-2.79,6.2,6.2,0,0,0-.65-2A3,3,0,0,0,84,65.64a3.37,3.37,0,0,0-1.7-.4,3.32,3.32,0,0,0-1.7.4,2.93,2.93,0,0,0-1.13,1.18,6.48,6.48,0,0,0-.62,2A17.55,17.55,0,0,0,78.68,71.6Z"
        transform="translate(-0.28 0.11)" />
    <g>
        <path style="fill: #ec8d55"
            d="M39.72,70.12a2.52,2.52,0,0,1,0,2.27l-8,13.86a2.51,2.51,0,0,1-2,1.13h-16a2.51,2.51,0,0,1-2-1.13l-8-13.86a2.52,2.52,0,0,1,0-2.27l8-13.86a2.5,2.5,0,0,1,2-1.14h16a2.5,2.5,0,0,1,2,1.14Z"
            transform="translate(-0.28 0.11)" />
        <path
            style="fill: none;stroke: #766e65;stroke-miterlimit: 10;stroke-width: 0.21841277182102203px"
            d="M39.72,70.12a2.52,2.52,0,0,1,0,2.27l-8,13.86a2.51,2.51,0,0,1-2,1.13h-16a2.51,2.51,0,0,1-2-1.13l-8-13.86a2.52,2.52,0,0,1,0-2.27l8-13.86a2.5,2.5,0,0,1,2-1.14h16a2.5,2.5,0,0,1,2,1.14Z"
            transform="translate(-0.28 0.11)" />
    </g>
    <path
        style="fill: #59534d;stroke: #59534d;stroke-miterlimit: 10;stroke-width: 0.21841277182102203px"
        d="M27.83,71.6A15.84,15.84,0,0,1,27.5,75a6.93,6.93,0,0,1-1.07,2.53,4.73,4.73,0,0,1-1.89,1.57,6.46,6.46,0,0,1-2.81.55,6,6,0,0,1-2.67-.55,4.77,4.77,0,0,1-1.88-1.57A7.16,7.16,0,0,1,16.06,75a14,14,0,0,1-.37-3.39A15.74,15.74,0,0,1,16,68.22a7,7,0,0,1,1.05-2.53,4.75,4.75,0,0,1,1.87-1.57,6.55,6.55,0,0,1,2.79-.54,6.39,6.39,0,0,1,2.69.53,4.92,4.92,0,0,1,1.9,1.57,7.27,7.27,0,0,1,1.13,2.53A13.94,13.94,0,0,1,27.83,71.6Zm-9.74,0a17.58,17.58,0,0,0,.2,2.8,6.48,6.48,0,0,0,.62,2A2.89,2.89,0,0,0,20,77.58a3.28,3.28,0,0,0,1.69.4,3.49,3.49,0,0,0,1.71-.39,3.11,3.11,0,0,0,1.15-1.18,6.44,6.44,0,0,0,.65-2,17.63,17.63,0,0,0,.2-2.81,17.45,17.45,0,0,0-.2-2.79,6.46,6.46,0,0,0-.65-2,3,3,0,0,0-1.15-1.18,3.38,3.38,0,0,0-1.71-.4,3.28,3.28,0,0,0-1.69.4,2.87,2.87,0,0,0-1.13,1.18,6.48,6.48,0,0,0-.62,2A17.45,17.45,0,0,0,18.09,71.6Z"
        transform="translate(-0.28 0.11)" />
</svg>
