<svg data-name="Layer 1" id="a338645d-dcc7-44d1-8b5e-02296c5c1ffe" viewBox="0 0 473.97 493.72"
    xmlns="http://www.w3.org/2000/svg">
    <title>icon</title>
    <g>
        <path style="fill: #766e65"
            d="M473.5,171.51a11.54,11.54,0,0,0,0-10.4L429.7,85.25a11.53,11.53,0,0,0-9-5.2H340.27a11.53,11.53,0,0,1-9-5.2L291.05,5.2a11.53,11.53,0,0,0-9-5.2h-87.6a11.53,11.53,0,0,0-9,5.2L145.23,74.85a11.53,11.53,0,0,1-9,5.2H55.8a11.53,11.53,0,0,0-9,5.2L3,161.11a11.54,11.54,0,0,0,0,10.4l40.22,69.65a11.54,11.54,0,0,1,0,10.4L3,321.21a11.54,11.54,0,0,0,0,10.4l43.8,75.86a11.53,11.53,0,0,0,9,5.2h80.43a11.53,11.53,0,0,1,9,5.2l40.22,69.65a11.53,11.53,0,0,0,9,5.2h87.6a11.53,11.53,0,0,0,9-5.2l40.22-69.65a11.53,11.53,0,0,1,9-5.2H420.7a11.53,11.53,0,0,0,9-5.2l43.8-75.86a11.54,11.54,0,0,0,0-10.4l-40.22-69.65a11.54,11.54,0,0,1,0-10.4Zm-142.16-74a11.53,11.53,0,0,1,9-5.2h73.28a11.53,11.53,0,0,1,9,5.2l36.71,63.59a11.54,11.54,0,0,1,0,10.4L422.69,235a11.53,11.53,0,0,1-9,5.2H340.12a11.53,11.53,0,0,1-9-5.2l-36.57-63.33a11.54,11.54,0,0,1,0-10.4ZM320.53,241.16a11.54,11.54,0,0,1,0,10.4L283.89,315a11.53,11.53,0,0,1-9,5.2H201.61a11.53,11.53,0,0,1-9-5.2L156,251.56a11.54,11.54,0,0,1,0-10.4l36.64-63.46a11.53,11.53,0,0,1,9-5.2h73.28a11.53,11.53,0,0,1,9,5.2Zm-128-223.69a11.53,11.53,0,0,1,9-5.2H275a11.53,11.53,0,0,1,9,5.2L320.6,80.92a11.54,11.54,0,0,1,0,10.4L283.81,155a11.53,11.53,0,0,1-9,5.2H201.69a11.53,11.53,0,0,1-9-5.2L155.9,91.32a11.54,11.54,0,0,1,0-10.4Zm-175.37,154a11.54,11.54,0,0,1,0-10.4L53.88,97.52a11.53,11.53,0,0,1,9-5.2h73.28a11.53,11.53,0,0,1,9,5.2L182,161.23a11.54,11.54,0,0,1,0,10.4L145.38,235a11.53,11.53,0,0,1-9,5.2H62.81a11.53,11.53,0,0,1-9-5.2ZM62.88,399.9a11.53,11.53,0,0,1-9-5.2L17.17,331.12a11.54,11.54,0,0,1,0-10.4l36.35-63a11.53,11.53,0,0,1,9-5.2h74.15a11.53,11.53,0,0,1,9,5.2l36.35,63a11.54,11.54,0,0,1,0,10.4L145.31,394.7a11.53,11.53,0,0,1-9,5.2ZM284,475.25a11.53,11.53,0,0,1-9,5.2H201.54a11.53,11.53,0,0,1-9-5.2L155.9,411.8a11.54,11.54,0,0,1,0-10.4l36.79-63.71a11.53,11.53,0,0,1,9-5.2h73.12a11.53,11.53,0,0,1,9,5.2L320.6,401.4a11.54,11.54,0,0,1,0,10.4ZM459.33,320.72a11.54,11.54,0,0,1,0,10.4L422.62,394.7a11.53,11.53,0,0,1-9,5.2H340.19a11.53,11.53,0,0,1-9-5.2l-36.71-63.58a11.54,11.54,0,0,1,0-10.4l36.35-63a11.53,11.53,0,0,1,9-5.2H414a11.53,11.53,0,0,1,9,5.2Z"
            transform="translate(-1.26 0.5)" />
        <path style="fill: none;stroke: #766e65;stroke-miterlimit: 10"
            d="M473.5,171.51a11.54,11.54,0,0,0,0-10.4L429.7,85.25a11.53,11.53,0,0,0-9-5.2H340.27a11.53,11.53,0,0,1-9-5.2L291.05,5.2a11.53,11.53,0,0,0-9-5.2h-87.6a11.53,11.53,0,0,0-9,5.2L145.23,74.85a11.53,11.53,0,0,1-9,5.2H55.8a11.53,11.53,0,0,0-9,5.2L3,161.11a11.54,11.54,0,0,0,0,10.4l40.22,69.65a11.54,11.54,0,0,1,0,10.4L3,321.21a11.54,11.54,0,0,0,0,10.4l43.8,75.86a11.53,11.53,0,0,0,9,5.2h80.43a11.53,11.53,0,0,1,9,5.2l40.22,69.65a11.53,11.53,0,0,0,9,5.2h87.6a11.53,11.53,0,0,0,9-5.2l40.22-69.65a11.53,11.53,0,0,1,9-5.2H420.7a11.53,11.53,0,0,0,9-5.2l43.8-75.86a11.54,11.54,0,0,0,0-10.4l-40.22-69.65a11.54,11.54,0,0,1,0-10.4Zm-142.16-74a11.53,11.53,0,0,1,9-5.2h73.28a11.53,11.53,0,0,1,9,5.2l36.71,63.59a11.54,11.54,0,0,1,0,10.4L422.69,235a11.53,11.53,0,0,1-9,5.2H340.12a11.53,11.53,0,0,1-9-5.2l-36.57-63.33a11.54,11.54,0,0,1,0-10.4ZM320.53,241.16a11.54,11.54,0,0,1,0,10.4L283.89,315a11.53,11.53,0,0,1-9,5.2H201.61a11.53,11.53,0,0,1-9-5.2L156,251.56a11.54,11.54,0,0,1,0-10.4l36.64-63.46a11.53,11.53,0,0,1,9-5.2h73.28a11.53,11.53,0,0,1,9,5.2Zm-128-223.69a11.53,11.53,0,0,1,9-5.2H275a11.53,11.53,0,0,1,9,5.2L320.6,80.92a11.54,11.54,0,0,1,0,10.4L283.81,155a11.53,11.53,0,0,1-9,5.2H201.69a11.53,11.53,0,0,1-9-5.2L155.9,91.32a11.54,11.54,0,0,1,0-10.4Zm-175.37,154a11.54,11.54,0,0,1,0-10.4L53.88,97.52a11.53,11.53,0,0,1,9-5.2h73.28a11.53,11.53,0,0,1,9,5.2L182,161.23a11.54,11.54,0,0,1,0,10.4L145.38,235a11.53,11.53,0,0,1-9,5.2H62.81a11.53,11.53,0,0,1-9-5.2ZM62.88,399.9a11.53,11.53,0,0,1-9-5.2L17.17,331.12a11.54,11.54,0,0,1,0-10.4l36.35-63a11.53,11.53,0,0,1,9-5.2h74.15a11.53,11.53,0,0,1,9,5.2l36.35,63a11.54,11.54,0,0,1,0,10.4L145.31,394.7a11.53,11.53,0,0,1-9,5.2ZM284,475.25a11.53,11.53,0,0,1-9,5.2H201.54a11.53,11.53,0,0,1-9-5.2L155.9,411.8a11.54,11.54,0,0,1,0-10.4l36.79-63.71a11.53,11.53,0,0,1,9-5.2h73.12a11.53,11.53,0,0,1,9,5.2L320.6,401.4a11.54,11.54,0,0,1,0,10.4ZM459.33,320.72a11.54,11.54,0,0,1,0,10.4L422.62,394.7a11.53,11.53,0,0,1-9,5.2H340.19a11.53,11.53,0,0,1-9-5.2l-36.71-63.58a11.54,11.54,0,0,1,0-10.4l36.35-63a11.53,11.53,0,0,1,9-5.2H414a11.53,11.53,0,0,1,9,5.2Z"
            transform="translate(-1.26 0.5)" />
    </g>
    <g>
        <path style="fill: #f2d04b"
            d="M320.53,241.16a11.54,11.54,0,0,1,0,10.4L283.89,315a11.53,11.53,0,0,1-9,5.2H201.61a11.53,11.53,0,0,1-9-5.2L156,251.56a11.54,11.54,0,0,1,0-10.4l36.64-63.46a11.53,11.53,0,0,1,9-5.2h73.28a11.53,11.53,0,0,1,9,5.2Z"
            transform="translate(-1.26 0.5)" />
        <path style="fill: none;stroke: #766e65;stroke-miterlimit: 10"
            d="M320.53,241.16a11.54,11.54,0,0,1,0,10.4L283.89,315a11.53,11.53,0,0,1-9,5.2H201.61a11.53,11.53,0,0,1-9-5.2L156,251.56a11.54,11.54,0,0,1,0-10.4l36.64-63.46a11.53,11.53,0,0,1,9-5.2h73.28a11.53,11.53,0,0,1,9,5.2Z"
            transform="translate(-1.26 0.5)" />
    </g>
    <path style="fill: #59534d;stroke: #59534d;stroke-miterlimit: 10"
        d="M271.58,283.78H259l-21.07-31-21.84,31H204.92l27-37.33-25.12-34.11h11.79l19.76,27.31,19.88-27.31H269.5l-25.06,33.81Z"
        transform="translate(-1.26 0.5)" />
    <g>
        <path style="fill: #ea5a38"
            d="M320.53,81.05a11.54,11.54,0,0,1,0,10.4l-36.64,63.46a11.53,11.53,0,0,1-9,5.2H201.61a11.53,11.53,0,0,1-9-5.2L156,91.45a11.54,11.54,0,0,1,0-10.4l36.64-63.46a11.53,11.53,0,0,1,9-5.2h73.28a11.53,11.53,0,0,1,9,5.2Z"
            transform="translate(-1.26 0.5)" />
        <path style="fill: none;stroke: #766e65;stroke-miterlimit: 10"
            d="M320.53,81.05a11.54,11.54,0,0,1,0,10.4l-36.64,63.46a11.53,11.53,0,0,1-9,5.2H201.61a11.53,11.53,0,0,1-9-5.2L156,91.45a11.54,11.54,0,0,1,0-10.4l36.64-63.46a11.53,11.53,0,0,1,9-5.2h73.28a11.53,11.53,0,0,1,9,5.2Z"
            transform="translate(-1.26 0.5)" />
    </g>
    <path style="fill: #59534d;stroke: #59534d;stroke-miterlimit: 10"
        d="M266.11,87.85a71.89,71.89,0,0,1-1.52,15.49,31.63,31.63,0,0,1-4.88,11.58,21.92,21.92,0,0,1-8.66,7.24,30.07,30.07,0,0,1-12.86,2.49A28.08,28.08,0,0,1,226,122.16a22.55,22.55,0,0,1-8.63-7.24,33.26,33.26,0,0,1-5.12-11.58,64.57,64.57,0,0,1-1.69-15.49A71.93,71.93,0,0,1,212,72.36a32.09,32.09,0,0,1,4.82-11.56,21.57,21.57,0,0,1,8.57-7.2,29.59,29.59,0,0,1,12.77-2.5,28.72,28.72,0,0,1,12.32,2.47,22.57,22.57,0,0,1,8.69,7.18,33.12,33.12,0,0,1,5.18,11.56A63.72,63.72,0,0,1,266.11,87.85Zm-44.58,0a79.81,79.81,0,0,0,.89,12.8,29,29,0,0,0,2.86,9.12,13.49,13.49,0,0,0,5.14,5.47,15.4,15.4,0,0,0,7.77,1.83,15.73,15.73,0,0,0,7.8-1.8,14,14,0,0,0,5.27-5.43,27.63,27.63,0,0,0,3-9.11,78.31,78.31,0,0,0,.92-12.88,77.37,77.37,0,0,0-.92-12.8,27.58,27.58,0,0,0-3-9.09A14,14,0,0,0,246,60.53a17.74,17.74,0,0,0-15.57,0A13.44,13.44,0,0,0,225.28,66a28.62,28.62,0,0,0-2.86,9.09A79.9,79.9,0,0,0,221.53,87.85Z"
        transform="translate(-1.26 0.5)" />
    <g>
        <path style="fill: #f2b179"
            d="M320.53,401.27a11.54,11.54,0,0,1,0,10.4l-36.64,63.46a11.53,11.53,0,0,1-9,5.2H201.61a11.53,11.53,0,0,1-9-5.2L156,411.67a11.54,11.54,0,0,1,0-10.4l36.64-63.46a11.53,11.53,0,0,1,9-5.2h73.28a11.53,11.53,0,0,1,9,5.2Z"
            transform="translate(-1.26 0.5)" />
        <path style="fill: none;stroke: #766e65;stroke-miterlimit: 10"
            d="M320.53,401.27a11.54,11.54,0,0,1,0,10.4l-36.64,63.46a11.53,11.53,0,0,1-9,5.2H201.61a11.53,11.53,0,0,1-9-5.2L156,411.67a11.54,11.54,0,0,1,0-10.4l36.64-63.46a11.53,11.53,0,0,1,9-5.2h73.28a11.53,11.53,0,0,1,9,5.2Z"
            transform="translate(-1.26 0.5)" />
    </g>
    <path style="fill: #59534d;stroke: #59534d;stroke-miterlimit: 10"
        d="M269.38,427.86H256.7v16H246.23v-16H206.05v-7.77l39.46-48H256.7v47.69h12.68Zm-23.15-8.11v-17.4c0-1.82,0-3.73.09-5.74s.12-4,.2-5.86.17-3.69.27-5.35.17-3,.21-4.16h-.54c-.27.65-.62,1.38-1,2.18s-.87,1.59-1.37,2.39-1,1.57-1.51,2.32-1,1.39-1.43,1.91l-24.47,29.71Z"
        transform="translate(-1.26 0.5)" />
    <g>
        <path style="fill: #f77b5f"
            d="M181.88,161a11.54,11.54,0,0,1,0,10.4L145.23,234.9a11.51,11.51,0,0,1-9,5.2H63a11.51,11.51,0,0,1-9-5.2L17.31,171.44a11.54,11.54,0,0,1,0-10.4L54,97.58a11.51,11.51,0,0,1,9-5.2h73.29a11.51,11.51,0,0,1,9,5.2Z"
            transform="translate(-1.26 0.5)" />
        <path style="fill: none;stroke: #766e65;stroke-miterlimit: 10"
            d="M181.88,161a11.54,11.54,0,0,1,0,10.4L145.23,234.9a11.51,11.51,0,0,1-9,5.2H63a11.51,11.51,0,0,1-9-5.2L17.31,171.44a11.54,11.54,0,0,1,0-10.4L54,97.58a11.51,11.51,0,0,1,9-5.2h73.29a11.51,11.51,0,0,1,9,5.2Z"
            transform="translate(-1.26 0.5)" />
    </g>
    <path style="fill: #59534d;stroke: #59534d;stroke-miterlimit: 10"
        d="M127.45,167.84a71.89,71.89,0,0,1-1.52,15.49,31.63,31.63,0,0,1-4.88,11.58,21.92,21.92,0,0,1-8.66,7.24,30.05,30.05,0,0,1-12.85,2.49,28,28,0,0,1-12.23-2.49,22.58,22.58,0,0,1-8.64-7.24,33.25,33.25,0,0,1-5.11-11.58,64.55,64.55,0,0,1-1.7-15.49,72,72,0,0,1,1.52-15.49,32.09,32.09,0,0,1,4.82-11.56,21.61,21.61,0,0,1,8.57-7.21,29.71,29.71,0,0,1,12.77-2.49,28.75,28.75,0,0,1,12.32,2.47,22.65,22.65,0,0,1,8.69,7.18,33.11,33.11,0,0,1,5.17,11.56A63.72,63.72,0,0,1,127.45,167.84Zm-44.58,0a81,81,0,0,0,.89,12.8,29.24,29.24,0,0,0,2.86,9.12,13.51,13.51,0,0,0,5.15,5.47,15.35,15.35,0,0,0,7.77,1.83,15.71,15.71,0,0,0,7.79-1.8,13.93,13.93,0,0,0,5.27-5.43,27.86,27.86,0,0,0,3-9.11,79.43,79.43,0,0,0,.92-12.88,78.47,78.47,0,0,0-.92-12.8,27.81,27.81,0,0,0-3-9.09,13.93,13.93,0,0,0-5.27-5.43,15.71,15.71,0,0,0-7.79-1.8,15.56,15.56,0,0,0-7.77,1.8A13.46,13.46,0,0,0,86.62,146,28.87,28.87,0,0,0,83.76,155,81.08,81.08,0,0,0,82.87,167.84Z"
        transform="translate(-1.26 0.5)" />
    <g>
        <path style="fill: #eee4db"
            d="M459.19,161a11.54,11.54,0,0,1,0,10.4L422.54,234.9a11.51,11.51,0,0,1-9,5.2H340.26a11.51,11.51,0,0,1-9-5.2l-36.65-63.46a11.54,11.54,0,0,1,0-10.4l36.65-63.46a11.51,11.51,0,0,1,9-5.2h73.29a11.51,11.51,0,0,1,9,5.2Z"
            transform="translate(-1.26 0.5)" />
        <path style="fill: none;stroke: #766e65;stroke-miterlimit: 10"
            d="M459.19,161a11.54,11.54,0,0,1,0,10.4L422.54,234.9a11.51,11.51,0,0,1-9,5.2H340.26a11.51,11.51,0,0,1-9-5.2l-36.65-63.46a11.54,11.54,0,0,1,0-10.4l36.65-63.46a11.51,11.51,0,0,1,9-5.2h73.29a11.51,11.51,0,0,1,9,5.2Z"
            transform="translate(-1.26 0.5)" />
    </g>
    <path style="fill: #59534d;stroke: #59534d;stroke-miterlimit: 10"
        d="M404.76,167.84a71.89,71.89,0,0,1-1.52,15.49,31.63,31.63,0,0,1-4.88,11.58,21.92,21.92,0,0,1-8.66,7.24,30.05,30.05,0,0,1-12.85,2.49,28,28,0,0,1-12.23-2.49,22.58,22.58,0,0,1-8.64-7.24,33.25,33.25,0,0,1-5.11-11.58,64.55,64.55,0,0,1-1.7-15.49,72,72,0,0,1,1.52-15.49,32.09,32.09,0,0,1,4.82-11.56,21.61,21.61,0,0,1,8.57-7.21,29.71,29.71,0,0,1,12.77-2.49,28.75,28.75,0,0,1,12.32,2.47,22.65,22.65,0,0,1,8.69,7.18A33.11,33.11,0,0,1,403,152.3,63.72,63.72,0,0,1,404.76,167.84Zm-44.58,0a81,81,0,0,0,.89,12.8,29.24,29.24,0,0,0,2.86,9.12,13.51,13.51,0,0,0,5.15,5.47,15.35,15.35,0,0,0,7.77,1.83,15.71,15.71,0,0,0,7.79-1.8,13.93,13.93,0,0,0,5.27-5.43,27.86,27.86,0,0,0,3-9.11,79.43,79.43,0,0,0,.92-12.88,78.47,78.47,0,0,0-.92-12.8,27.81,27.81,0,0,0-3-9.09,13.93,13.93,0,0,0-5.27-5.43,15.71,15.71,0,0,0-7.79-1.8,15.56,15.56,0,0,0-7.77,1.8,13.46,13.46,0,0,0-5.15,5.43,28.87,28.87,0,0,0-2.86,9.09A81.08,81.08,0,0,0,360.18,167.84Z"
        transform="translate(-1.26 0.5)" />
    <g>
        <path style="fill: #e9cc9c"
            d="M459.22,321a11.54,11.54,0,0,1,0,10.4l-36.64,63.46a11.53,11.53,0,0,1-9,5.2H340.3a11.53,11.53,0,0,1-9-5.2l-36.64-63.46a11.54,11.54,0,0,1,0-10.4l36.64-63.46a11.53,11.53,0,0,1,9-5.2h73.28a11.53,11.53,0,0,1,9,5.2Z"
            transform="translate(-1.26 0.5)" />
        <path style="fill: none;stroke: #766e65;stroke-miterlimit: 10"
            d="M459.22,321a11.54,11.54,0,0,1,0,10.4l-36.64,63.46a11.53,11.53,0,0,1-9,5.2H340.3a11.53,11.53,0,0,1-9-5.2l-36.64-63.46a11.54,11.54,0,0,1,0-10.4l36.64-63.46a11.53,11.53,0,0,1,9-5.2h73.28a11.53,11.53,0,0,1,9,5.2Z"
            transform="translate(-1.26 0.5)" />
    </g>
    <path style="fill: #59534d;stroke: #59534d;stroke-miterlimit: 10"
        d="M404.8,327.83a71.89,71.89,0,0,1-1.52,15.49,31.63,31.63,0,0,1-4.88,11.58,21.92,21.92,0,0,1-8.66,7.24,30.07,30.07,0,0,1-12.86,2.49,28.08,28.08,0,0,1-12.23-2.49A22.55,22.55,0,0,1,356,354.9a33.26,33.26,0,0,1-5.12-11.58,64.57,64.57,0,0,1-1.69-15.49,72,72,0,0,1,1.51-15.49,32.09,32.09,0,0,1,4.82-11.56,21.57,21.57,0,0,1,8.57-7.2,29.59,29.59,0,0,1,12.77-2.5,28.72,28.72,0,0,1,12.32,2.47,22.57,22.57,0,0,1,8.69,7.18,33.12,33.12,0,0,1,5.18,11.56A63.72,63.72,0,0,1,404.8,327.83Zm-44.58,0a79.81,79.81,0,0,0,.89,12.8,29,29,0,0,0,2.86,9.12,13.49,13.49,0,0,0,5.14,5.47,15.4,15.4,0,0,0,7.77,1.83,15.73,15.73,0,0,0,7.8-1.8,14,14,0,0,0,5.27-5.43,27.86,27.86,0,0,0,3-9.11,78.31,78.31,0,0,0,.92-12.88,77.37,77.37,0,0,0-.92-12.8,27.82,27.82,0,0,0-3-9.09,14,14,0,0,0-5.27-5.43,17.74,17.74,0,0,0-15.57,0,13.44,13.44,0,0,0-5.14,5.43,28.62,28.62,0,0,0-2.86,9.09A79.9,79.9,0,0,0,360.22,327.83Z"
        transform="translate(-1.26 0.5)" />
    <g>
        <path style="fill: #ec8d55"
            d="M181.84,321a11.54,11.54,0,0,1,0,10.4L145.2,394.89a11.53,11.53,0,0,1-9,5.2H62.92a11.53,11.53,0,0,1-9-5.2L17.28,331.43a11.54,11.54,0,0,1,0-10.4l36.64-63.46a11.53,11.53,0,0,1,9-5.2H136.2a11.53,11.53,0,0,1,9,5.2Z"
            transform="translate(-1.26 0.5)" />
        <path style="fill: none;stroke: #766e65;stroke-miterlimit: 10"
            d="M181.84,321a11.54,11.54,0,0,1,0,10.4L145.2,394.89a11.53,11.53,0,0,1-9,5.2H62.92a11.53,11.53,0,0,1-9-5.2L17.28,331.43a11.54,11.54,0,0,1,0-10.4l36.64-63.46a11.53,11.53,0,0,1,9-5.2H136.2a11.53,11.53,0,0,1,9,5.2Z"
            transform="translate(-1.26 0.5)" />
    </g>
    <path style="fill: #59534d;stroke: #59534d;stroke-miterlimit: 10"
        d="M127.42,327.83a71.89,71.89,0,0,1-1.52,15.49A31.63,31.63,0,0,1,121,354.9a22,22,0,0,1-8.66,7.24,30.1,30.1,0,0,1-12.86,2.49,28.08,28.08,0,0,1-12.23-2.49,22.55,22.55,0,0,1-8.63-7.24,33.26,33.26,0,0,1-5.12-11.58,64.55,64.55,0,0,1-1.7-15.49,72,72,0,0,1,1.52-15.49,32.09,32.09,0,0,1,4.82-11.56,21.57,21.57,0,0,1,8.57-7.2,29.59,29.59,0,0,1,12.77-2.5,28.72,28.72,0,0,1,12.32,2.47,22.57,22.57,0,0,1,8.69,7.18,33.12,33.12,0,0,1,5.18,11.56A63.72,63.72,0,0,1,127.42,327.83Zm-44.58,0a79.81,79.81,0,0,0,.89,12.8,29,29,0,0,0,2.86,9.12,13.49,13.49,0,0,0,5.14,5.47,15.38,15.38,0,0,0,7.77,1.83,15.75,15.75,0,0,0,7.8-1.8,13.9,13.9,0,0,0,5.26-5.43,27.62,27.62,0,0,0,3-9.11,78.31,78.31,0,0,0,.92-12.88,77.37,77.37,0,0,0-.92-12.8,27.58,27.58,0,0,0-3-9.09,13.9,13.9,0,0,0-5.26-5.43,15.75,15.75,0,0,0-7.8-1.8,15.58,15.58,0,0,0-7.77,1.8,13.44,13.44,0,0,0-5.14,5.43A28.62,28.62,0,0,0,83.73,315,79.9,79.9,0,0,0,82.84,327.83Z"
        transform="translate(-1.26 0.5)" />
</svg>
