<svg data-name="Layer 1" id="b932a617-5bee-45ff-ad87-442273a3330f" viewBox="0 0 473.97 493.72"
    xmlns="http://www.w3.org/2000/svg">
    <defs>
        <style>
            .a0201d30-365f-40b5-a8d4-017ed198f664 {
            fill: #766e65;
            }

            .bd872a08-63fe-4f80-9aea-3e7b8abf38da {
            fill: none;
            stroke: #766e65;
            }

            .bd872a08-63fe-4f80-9aea-3e7b8abf38da, .fbb9988d-747c-4e67-bcbb-ef71255d1ee3 {
            stroke-miterlimit: 10;
            }

            .e811968e-6ad1-457b-a551-1a4570d1684b {
            fill: #f2d04b;
            }

            .fbb9988d-747c-4e67-bcbb-ef71255d1ee3 {
            fill: #59534d;
            stroke: #59534d;
            }

            .ab77285a-1faa-4e7a-b57b-9a9c1f0c63a6 {
            fill: #ea5a38;
            }

            .b6252a69-fb62-4e8c-b0db-397820e25314 {
            fill: #f2b179;
            }

            .e2bb0833-ab37-49df-a594-5c52cd25ac00 {
            fill: #f77b5f;
            }

            .a6844f63-f5e9-4007-8855-684f337de9e2 {
            fill: #eee4db;
            }

            .ed27ce71-73b3-4415-b630-b39d16903d70 {
            fill: #e9cc9c;
            }

            .b79f04aa-5206-4f26-8cc8-b18a8e7467a2 {
            fill: #ec8d55;
            }
        </style>
    </defs>
    <title>icon</title>
    <g>
        <path class="a0201d30-365f-40b5-a8d4-017ed198f664"
            d="M491.25,181.15a11.54,11.54,0,0,0,0-10.4l-43.8-75.86a11.53,11.53,0,0,0-9-5.2H358a11.53,11.53,0,0,1-9-5.2L308.8,14.84a11.53,11.53,0,0,0-9-5.2H212.2a11.53,11.53,0,0,0-9,5.2L163,84.49a11.53,11.53,0,0,1-9,5.2H73.55a11.53,11.53,0,0,0-9,5.2l-43.8,75.86a11.54,11.54,0,0,0,0,10.4L61,250.8a11.54,11.54,0,0,1,0,10.4L20.75,330.85a11.54,11.54,0,0,0,0,10.4l43.8,75.86a11.53,11.53,0,0,0,9,5.2H154a11.53,11.53,0,0,1,9,5.2l40.22,69.65a11.53,11.53,0,0,0,9,5.2h87.6a11.53,11.53,0,0,0,9-5.2L349,427.51a11.53,11.53,0,0,1,9-5.2h80.43a11.53,11.53,0,0,0,9-5.2l43.8-75.86a11.54,11.54,0,0,0,0-10.4L451,261.2a11.54,11.54,0,0,1,0-10.4Zm-142.16-74a11.53,11.53,0,0,1,9-5.2h73.28a11.53,11.53,0,0,1,9,5.2l36.71,63.59a11.54,11.54,0,0,1,0,10.4L440.44,244.6a11.53,11.53,0,0,1-9,5.2H357.87a11.53,11.53,0,0,1-9-5.2L312.3,181.27a11.54,11.54,0,0,1,0-10.4ZM338.28,250.8a11.54,11.54,0,0,1,0,10.4l-36.64,63.46a11.53,11.53,0,0,1-9,5.2H219.36a11.53,11.53,0,0,1-9-5.2L173.72,261.2a11.54,11.54,0,0,1,0-10.4l36.64-63.46a11.53,11.53,0,0,1,9-5.2h73.28a11.53,11.53,0,0,1,9,5.2Zm-128-223.69a11.53,11.53,0,0,1,9-5.2h73.42a11.53,11.53,0,0,1,9,5.2l36.64,63.45a11.54,11.54,0,0,1,0,10.4l-36.79,63.71a11.53,11.53,0,0,1-9,5.2H219.44a11.53,11.53,0,0,1-9-5.2L173.65,101a11.54,11.54,0,0,1,0-10.4Zm-175.37,154a11.54,11.54,0,0,1,0-10.4l36.71-63.59a11.53,11.53,0,0,1,9-5.2h73.28a11.53,11.53,0,0,1,9,5.2l36.79,63.71a11.54,11.54,0,0,1,0,10.4L163.13,244.6a11.53,11.53,0,0,1-9,5.2H80.56a11.53,11.53,0,0,1-9-5.2ZM80.63,409.54a11.53,11.53,0,0,1-9-5.2L34.92,340.76a11.54,11.54,0,0,1,0-10.4l36.35-63a11.53,11.53,0,0,1,9-5.2h74.15a11.53,11.53,0,0,1,9,5.2l36.35,63a11.54,11.54,0,0,1,0,10.4l-36.71,63.58a11.53,11.53,0,0,1-9,5.2Zm221.08,75.35a11.53,11.53,0,0,1-9,5.2H219.29a11.53,11.53,0,0,1-9-5.2l-36.64-63.45a11.54,11.54,0,0,1,0-10.4l36.79-63.71a11.53,11.53,0,0,1,9-5.2h73.12a11.53,11.53,0,0,1,9,5.2L338.35,411a11.54,11.54,0,0,1,0,10.4ZM477.08,330.36a11.54,11.54,0,0,1,0,10.4l-36.71,63.58a11.53,11.53,0,0,1-9,5.2H357.94a11.53,11.53,0,0,1-9-5.2l-36.71-63.58a11.54,11.54,0,0,1,0-10.4l36.35-63a11.53,11.53,0,0,1,9-5.2h74.15a11.53,11.53,0,0,1,9,5.2Z"
            transform="translate(-19.01 -9.14)" />
        <path class="bd872a08-63fe-4f80-9aea-3e7b8abf38da"
            d="M491.25,181.15a11.54,11.54,0,0,0,0-10.4l-43.8-75.86a11.53,11.53,0,0,0-9-5.2H358a11.53,11.53,0,0,1-9-5.2L308.8,14.84a11.53,11.53,0,0,0-9-5.2H212.2a11.53,11.53,0,0,0-9,5.2L163,84.49a11.53,11.53,0,0,1-9,5.2H73.55a11.53,11.53,0,0,0-9,5.2l-43.8,75.86a11.54,11.54,0,0,0,0,10.4L61,250.8a11.54,11.54,0,0,1,0,10.4L20.75,330.85a11.54,11.54,0,0,0,0,10.4l43.8,75.86a11.53,11.53,0,0,0,9,5.2H154a11.53,11.53,0,0,1,9,5.2l40.22,69.65a11.53,11.53,0,0,0,9,5.2h87.6a11.53,11.53,0,0,0,9-5.2L349,427.51a11.53,11.53,0,0,1,9-5.2h80.43a11.53,11.53,0,0,0,9-5.2l43.8-75.86a11.54,11.54,0,0,0,0-10.4L451,261.2a11.54,11.54,0,0,1,0-10.4Zm-142.16-74a11.53,11.53,0,0,1,9-5.2h73.28a11.53,11.53,0,0,1,9,5.2l36.71,63.59a11.54,11.54,0,0,1,0,10.4L440.44,244.6a11.53,11.53,0,0,1-9,5.2H357.87a11.53,11.53,0,0,1-9-5.2L312.3,181.27a11.54,11.54,0,0,1,0-10.4ZM338.28,250.8a11.54,11.54,0,0,1,0,10.4l-36.64,63.46a11.53,11.53,0,0,1-9,5.2H219.36a11.53,11.53,0,0,1-9-5.2L173.72,261.2a11.54,11.54,0,0,1,0-10.4l36.64-63.46a11.53,11.53,0,0,1,9-5.2h73.28a11.53,11.53,0,0,1,9,5.2Zm-128-223.69a11.53,11.53,0,0,1,9-5.2h73.42a11.53,11.53,0,0,1,9,5.2l36.64,63.45a11.54,11.54,0,0,1,0,10.4l-36.79,63.71a11.53,11.53,0,0,1-9,5.2H219.44a11.53,11.53,0,0,1-9-5.2L173.65,101a11.54,11.54,0,0,1,0-10.4Zm-175.37,154a11.54,11.54,0,0,1,0-10.4l36.71-63.59a11.53,11.53,0,0,1,9-5.2h73.28a11.53,11.53,0,0,1,9,5.2l36.79,63.71a11.54,11.54,0,0,1,0,10.4L163.13,244.6a11.53,11.53,0,0,1-9,5.2H80.56a11.53,11.53,0,0,1-9-5.2ZM80.63,409.54a11.53,11.53,0,0,1-9-5.2L34.92,340.76a11.54,11.54,0,0,1,0-10.4l36.35-63a11.53,11.53,0,0,1,9-5.2h74.15a11.53,11.53,0,0,1,9,5.2l36.35,63a11.54,11.54,0,0,1,0,10.4l-36.71,63.58a11.53,11.53,0,0,1-9,5.2Zm221.08,75.35a11.53,11.53,0,0,1-9,5.2H219.29a11.53,11.53,0,0,1-9-5.2l-36.64-63.45a11.54,11.54,0,0,1,0-10.4l36.79-63.71a11.53,11.53,0,0,1,9-5.2h73.12a11.53,11.53,0,0,1,9,5.2L338.35,411a11.54,11.54,0,0,1,0,10.4ZM477.08,330.36a11.54,11.54,0,0,1,0,10.4l-36.71,63.58a11.53,11.53,0,0,1-9,5.2H357.94a11.53,11.53,0,0,1-9-5.2l-36.71-63.58a11.54,11.54,0,0,1,0-10.4l36.35-63a11.53,11.53,0,0,1,9-5.2h74.15a11.53,11.53,0,0,1,9,5.2Z"
            transform="translate(-19.01 -9.14)" />
    </g>
    <g>
        <path class="e811968e-6ad1-457b-a551-1a4570d1684b"
            d="M338.28,250.8a11.54,11.54,0,0,1,0,10.4l-36.64,63.46a11.53,11.53,0,0,1-9,5.2H219.36a11.53,11.53,0,0,1-9-5.2L173.72,261.2a11.54,11.54,0,0,1,0-10.4l36.64-63.46a11.53,11.53,0,0,1,9-5.2h73.28a11.53,11.53,0,0,1,9,5.2Z"
            transform="translate(-19.01 -9.14)" />
        <path class="bd872a08-63fe-4f80-9aea-3e7b8abf38da"
            d="M338.28,250.8a11.54,11.54,0,0,1,0,10.4l-36.64,63.46a11.53,11.53,0,0,1-9,5.2H219.36a11.53,11.53,0,0,1-9-5.2L173.72,261.2a11.54,11.54,0,0,1,0-10.4l36.64-63.46a11.53,11.53,0,0,1,9-5.2h73.28a11.53,11.53,0,0,1,9,5.2Z"
            transform="translate(-19.01 -9.14)" />
    </g>
    <path class="fbb9988d-747c-4e67-bcbb-ef71255d1ee3"
        d="M289.33,293.42H276.77l-21.07-31-21.84,31H222.67l27-37.33L224.51,222H236.3l19.76,27.31L275.94,222h11.31l-25.06,33.81Z"
        transform="translate(-19.01 -9.14)" />
    <g>
        <path class="ab77285a-1faa-4e7a-b57b-9a9c1f0c63a6"
            d="M338.28,90.69a11.54,11.54,0,0,1,0,10.4l-36.64,63.46a11.53,11.53,0,0,1-9,5.2H219.36a11.53,11.53,0,0,1-9-5.2l-36.64-63.46a11.54,11.54,0,0,1,0-10.4l36.64-63.46a11.53,11.53,0,0,1,9-5.2h73.28a11.53,11.53,0,0,1,9,5.2Z"
            transform="translate(-19.01 -9.14)" />
        <path class="bd872a08-63fe-4f80-9aea-3e7b8abf38da"
            d="M338.28,90.69a11.54,11.54,0,0,1,0,10.4l-36.64,63.46a11.53,11.53,0,0,1-9,5.2H219.36a11.53,11.53,0,0,1-9-5.2l-36.64-63.46a11.54,11.54,0,0,1,0-10.4l36.64-63.46a11.53,11.53,0,0,1,9-5.2h73.28a11.53,11.53,0,0,1,9,5.2Z"
            transform="translate(-19.01 -9.14)" />
    </g>
    <path class="fbb9988d-747c-4e67-bcbb-ef71255d1ee3"
        d="M283.86,97.49A71.89,71.89,0,0,1,282.34,113a31.63,31.63,0,0,1-4.88,11.58,21.92,21.92,0,0,1-8.66,7.24,30.07,30.07,0,0,1-12.86,2.49,28.08,28.08,0,0,1-12.23-2.49,22.55,22.55,0,0,1-8.63-7.24A33.26,33.26,0,0,1,230,113a64.57,64.57,0,0,1-1.69-15.49A72,72,0,0,1,229.78,82a32.09,32.09,0,0,1,4.82-11.56,21.57,21.57,0,0,1,8.57-7.2,29.59,29.59,0,0,1,12.77-2.5,28.72,28.72,0,0,1,12.32,2.47A22.57,22.57,0,0,1,277,70.39,33.12,33.12,0,0,1,282.13,82,63.72,63.72,0,0,1,283.86,97.49Zm-44.58,0a79.81,79.81,0,0,0,.89,12.8,29,29,0,0,0,2.86,9.12,13.49,13.49,0,0,0,5.14,5.47,15.4,15.4,0,0,0,7.77,1.83,15.73,15.73,0,0,0,7.8-1.8,14,14,0,0,0,5.27-5.43,27.63,27.63,0,0,0,3-9.11,78.31,78.31,0,0,0,.92-12.88,77.37,77.37,0,0,0-.92-12.8,27.58,27.58,0,0,0-3-9.09,14,14,0,0,0-5.27-5.43,17.74,17.74,0,0,0-15.57,0A13.44,13.44,0,0,0,243,75.6a28.62,28.62,0,0,0-2.86,9.09A79.9,79.9,0,0,0,239.28,97.49Z"
        transform="translate(-19.01 -9.14)" />
    <g>
        <path class="b6252a69-fb62-4e8c-b0db-397820e25314"
            d="M338.28,410.91a11.54,11.54,0,0,1,0,10.4l-36.64,63.46a11.53,11.53,0,0,1-9,5.2H219.36a11.53,11.53,0,0,1-9-5.2l-36.64-63.46a11.54,11.54,0,0,1,0-10.4l36.64-63.46a11.53,11.53,0,0,1,9-5.2h73.28a11.53,11.53,0,0,1,9,5.2Z"
            transform="translate(-19.01 -9.14)" />
        <path class="bd872a08-63fe-4f80-9aea-3e7b8abf38da"
            d="M338.28,410.91a11.54,11.54,0,0,1,0,10.4l-36.64,63.46a11.53,11.53,0,0,1-9,5.2H219.36a11.53,11.53,0,0,1-9-5.2l-36.64-63.46a11.54,11.54,0,0,1,0-10.4l36.64-63.46a11.53,11.53,0,0,1,9-5.2h73.28a11.53,11.53,0,0,1,9,5.2Z"
            transform="translate(-19.01 -9.14)" />
    </g>
    <path class="fbb9988d-747c-4e67-bcbb-ef71255d1ee3"
        d="M287.13,437.5H274.45v16H264v-16H223.8v-7.77l39.46-48h11.19v47.69h12.68ZM264,429.39V412c0-1.82,0-3.74.09-5.74s.12-4,.2-5.86.17-3.69.27-5.35.17-3.05.21-4.16h-.54c-.27.66-.62,1.38-1,2.18s-.87,1.59-1.37,2.39-1,1.57-1.51,2.32-1,1.39-1.43,1.91l-24.47,29.71Z"
        transform="translate(-19.01 -9.14)" />
    <g>
        <path class="e2bb0833-ab37-49df-a594-5c52cd25ac00"
            d="M199.63,170.68a11.54,11.54,0,0,1,0,10.4L163,244.54a11.51,11.51,0,0,1-9,5.2H80.7a11.51,11.51,0,0,1-9-5.2L35.06,181.08a11.54,11.54,0,0,1,0-10.4l36.65-63.46a11.51,11.51,0,0,1,9-5.2H154a11.51,11.51,0,0,1,9,5.2Z"
            transform="translate(-19.01 -9.14)" />
        <path class="bd872a08-63fe-4f80-9aea-3e7b8abf38da"
            d="M199.63,170.68a11.54,11.54,0,0,1,0,10.4L163,244.54a11.51,11.51,0,0,1-9,5.2H80.7a11.51,11.51,0,0,1-9-5.2L35.06,181.08a11.54,11.54,0,0,1,0-10.4l36.65-63.46a11.51,11.51,0,0,1,9-5.2H154a11.51,11.51,0,0,1,9,5.2Z"
            transform="translate(-19.01 -9.14)" />
    </g>
    <path class="fbb9988d-747c-4e67-bcbb-ef71255d1ee3"
        d="M145.2,177.48A71.89,71.89,0,0,1,143.68,193a31.63,31.63,0,0,1-4.88,11.58,21.84,21.84,0,0,1-8.66,7.24,30.05,30.05,0,0,1-12.85,2.49,28,28,0,0,1-12.23-2.49,22.49,22.49,0,0,1-8.64-7.24A33.25,33.25,0,0,1,91.31,193a64.55,64.55,0,0,1-1.7-15.49A71.89,71.89,0,0,1,91.13,162,32.09,32.09,0,0,1,96,150.43a21.51,21.51,0,0,1,8.57-7.2,29.55,29.55,0,0,1,12.77-2.5,28.75,28.75,0,0,1,12.32,2.47,22.65,22.65,0,0,1,8.69,7.18,33.11,33.11,0,0,1,5.17,11.56A63.72,63.72,0,0,1,145.2,177.48Zm-44.58,0a81,81,0,0,0,.89,12.8,29.24,29.24,0,0,0,2.86,9.12,13.51,13.51,0,0,0,5.15,5.47,15.35,15.35,0,0,0,7.77,1.83,15.71,15.71,0,0,0,7.79-1.8,13.93,13.93,0,0,0,5.27-5.43,27.86,27.86,0,0,0,3-9.11,79.43,79.43,0,0,0,.92-12.88,78.47,78.47,0,0,0-.92-12.8,27.81,27.81,0,0,0-3-9.09,13.93,13.93,0,0,0-5.27-5.43,15.71,15.71,0,0,0-7.79-1.8,15.56,15.56,0,0,0-7.77,1.8,13.46,13.46,0,0,0-5.15,5.43,28.87,28.87,0,0,0-2.86,9.09A81.08,81.08,0,0,0,100.62,177.48Z"
        transform="translate(-19.01 -9.14)" />
    <g>
        <path class="a6844f63-f5e9-4007-8855-684f337de9e2"
            d="M476.94,170.68a11.54,11.54,0,0,1,0,10.4l-36.65,63.46a11.51,11.51,0,0,1-9,5.2H358a11.51,11.51,0,0,1-9-5.2l-36.65-63.46a11.54,11.54,0,0,1,0-10.4L349,107.22a11.51,11.51,0,0,1,9-5.2H431.3a11.51,11.51,0,0,1,9,5.2Z"
            transform="translate(-19.01 -9.14)" />
        <path class="bd872a08-63fe-4f80-9aea-3e7b8abf38da"
            d="M476.94,170.68a11.54,11.54,0,0,1,0,10.4l-36.65,63.46a11.51,11.51,0,0,1-9,5.2H358a11.51,11.51,0,0,1-9-5.2l-36.65-63.46a11.54,11.54,0,0,1,0-10.4L349,107.22a11.51,11.51,0,0,1,9-5.2H431.3a11.51,11.51,0,0,1,9,5.2Z"
            transform="translate(-19.01 -9.14)" />
    </g>
    <path class="fbb9988d-747c-4e67-bcbb-ef71255d1ee3"
        d="M422.51,177.48A71.89,71.89,0,0,1,421,193a31.63,31.63,0,0,1-4.88,11.58,21.84,21.84,0,0,1-8.66,7.24,30.05,30.05,0,0,1-12.85,2.49,28,28,0,0,1-12.23-2.49,22.49,22.49,0,0,1-8.64-7.24A33.25,33.25,0,0,1,368.62,193a64.55,64.55,0,0,1-1.7-15.49A71.89,71.89,0,0,1,368.44,162a32.09,32.09,0,0,1,4.82-11.56,21.51,21.51,0,0,1,8.57-7.2,29.55,29.55,0,0,1,12.77-2.5,28.75,28.75,0,0,1,12.32,2.47,22.65,22.65,0,0,1,8.69,7.18,33.11,33.11,0,0,1,5.17,11.56A63.72,63.72,0,0,1,422.51,177.48Zm-44.58,0a81,81,0,0,0,.89,12.8,29.24,29.24,0,0,0,2.86,9.12,13.51,13.51,0,0,0,5.15,5.47,15.35,15.35,0,0,0,7.77,1.83,15.71,15.71,0,0,0,7.79-1.8,13.93,13.93,0,0,0,5.27-5.43,27.86,27.86,0,0,0,3-9.11,79.43,79.43,0,0,0,.92-12.88,78.47,78.47,0,0,0-.92-12.8,27.81,27.81,0,0,0-3-9.09,13.93,13.93,0,0,0-5.27-5.43,15.71,15.71,0,0,0-7.79-1.8,15.56,15.56,0,0,0-7.77,1.8,13.46,13.46,0,0,0-5.15,5.43,28.87,28.87,0,0,0-2.86,9.09A81.08,81.08,0,0,0,377.93,177.48Z"
        transform="translate(-19.01 -9.14)" />
    <g>
        <path class="ed27ce71-73b3-4415-b630-b39d16903d70"
            d="M477,330.67a11.54,11.54,0,0,1,0,10.4l-36.64,63.46a11.53,11.53,0,0,1-9,5.2H358.05a11.53,11.53,0,0,1-9-5.2l-36.64-63.46a11.54,11.54,0,0,1,0-10.4l36.64-63.46a11.53,11.53,0,0,1,9-5.2h73.28a11.53,11.53,0,0,1,9,5.2Z"
            transform="translate(-19.01 -9.14)" />
        <path class="bd872a08-63fe-4f80-9aea-3e7b8abf38da"
            d="M477,330.67a11.54,11.54,0,0,1,0,10.4l-36.64,63.46a11.53,11.53,0,0,1-9,5.2H358.05a11.53,11.53,0,0,1-9-5.2l-36.64-63.46a11.54,11.54,0,0,1,0-10.4l36.64-63.46a11.53,11.53,0,0,1,9-5.2h73.28a11.53,11.53,0,0,1,9,5.2Z"
            transform="translate(-19.01 -9.14)" />
    </g>
    <path class="fbb9988d-747c-4e67-bcbb-ef71255d1ee3"
        d="M422.55,337.47A71.89,71.89,0,0,1,421,353a31.63,31.63,0,0,1-4.88,11.58,21.84,21.84,0,0,1-8.66,7.24,30.07,30.07,0,0,1-12.86,2.49,28.08,28.08,0,0,1-12.23-2.49,22.46,22.46,0,0,1-8.63-7.24A33.26,33.26,0,0,1,368.65,353,64.57,64.57,0,0,1,367,337.47,72,72,0,0,1,368.47,322a32.09,32.09,0,0,1,4.82-11.56,21.57,21.57,0,0,1,8.57-7.2,29.59,29.59,0,0,1,12.77-2.5A28.72,28.72,0,0,1,407,303.19a22.57,22.57,0,0,1,8.69,7.18,33.12,33.12,0,0,1,5.18,11.56A63.72,63.72,0,0,1,422.55,337.47Zm-44.58,0a79.81,79.81,0,0,0,.89,12.8,29,29,0,0,0,2.86,9.12,13.49,13.49,0,0,0,5.14,5.47,15.4,15.4,0,0,0,7.77,1.83,15.73,15.73,0,0,0,7.8-1.8,14,14,0,0,0,5.27-5.43,27.86,27.86,0,0,0,3-9.11,78.31,78.31,0,0,0,.92-12.88,77.37,77.37,0,0,0-.92-12.8,27.82,27.82,0,0,0-3-9.09,14,14,0,0,0-5.27-5.43,17.74,17.74,0,0,0-15.57,0,13.44,13.44,0,0,0-5.14,5.43,28.62,28.62,0,0,0-2.86,9.09A79.9,79.9,0,0,0,378,337.47Z"
        transform="translate(-19.01 -9.14)" />
    <g>
        <path class="b79f04aa-5206-4f26-8cc8-b18a8e7467a2"
            d="M199.59,330.67a11.54,11.54,0,0,1,0,10.4L163,404.53a11.53,11.53,0,0,1-9,5.2H80.67a11.53,11.53,0,0,1-9-5.2L35,341.07a11.54,11.54,0,0,1,0-10.4l36.64-63.46a11.53,11.53,0,0,1,9-5.2H154a11.53,11.53,0,0,1,9,5.2Z"
            transform="translate(-19.01 -9.14)" />
        <path class="bd872a08-63fe-4f80-9aea-3e7b8abf38da"
            d="M199.59,330.67a11.54,11.54,0,0,1,0,10.4L163,404.53a11.53,11.53,0,0,1-9,5.2H80.67a11.53,11.53,0,0,1-9-5.2L35,341.07a11.54,11.54,0,0,1,0-10.4l36.64-63.46a11.53,11.53,0,0,1,9-5.2H154a11.53,11.53,0,0,1,9,5.2Z"
            transform="translate(-19.01 -9.14)" />
    </g>
    <path class="fbb9988d-747c-4e67-bcbb-ef71255d1ee3"
        d="M145.17,337.47A71.89,71.89,0,0,1,143.65,353a31.63,31.63,0,0,1-4.88,11.58,21.84,21.84,0,0,1-8.66,7.24,30.1,30.1,0,0,1-12.86,2.49A28.08,28.08,0,0,1,105,371.78a22.46,22.46,0,0,1-8.63-7.24A33.26,33.26,0,0,1,91.27,353a64.55,64.55,0,0,1-1.7-15.49A72,72,0,0,1,91.09,322a32.09,32.09,0,0,1,4.82-11.56,21.57,21.57,0,0,1,8.57-7.2,29.59,29.59,0,0,1,12.77-2.5,28.72,28.72,0,0,1,12.32,2.47,22.57,22.57,0,0,1,8.69,7.18,33.12,33.12,0,0,1,5.18,11.56A63.72,63.72,0,0,1,145.17,337.47Zm-44.58,0a79.81,79.81,0,0,0,.89,12.8,29,29,0,0,0,2.86,9.12,13.49,13.49,0,0,0,5.14,5.47,15.38,15.38,0,0,0,7.77,1.83,15.75,15.75,0,0,0,7.8-1.8,14,14,0,0,0,5.27-5.43,27.86,27.86,0,0,0,3-9.11,78.31,78.31,0,0,0,.92-12.88,77.37,77.37,0,0,0-.92-12.8,27.82,27.82,0,0,0-3-9.09,14,14,0,0,0-5.27-5.43,15.75,15.75,0,0,0-7.8-1.8,15.58,15.58,0,0,0-7.77,1.8,13.44,13.44,0,0,0-5.14,5.43,28.62,28.62,0,0,0-2.86,9.09A79.9,79.9,0,0,0,100.59,337.47Z"
        transform="translate(-19.01 -9.14)" />
</svg>
